<?xml version="1.0" encoding="utf-8"?>
<!-- Generator: Adobe Illustrator 18.0.0, SVG Export Plug-In . SVG Version: 6.00 Build 0)  -->
<!DOCTYPE svg PUBLIC "-//W3C//DTD SVG 1.1//EN" "http://www.w3.org/Graphics/SVG/1.1/DTD/svg11.dtd">
<svg version="1.1" id="Layer_1" xmlns="http://www.w3.org/2000/svg" xmlns:xlink="http://www.w3.org/1999/xlink" x="0px" y="0px"
	 viewBox="0 0 365 365" enable-background="new 0 0 365 365" xml:space="preserve">
<polygon fill="#BDD2C7" points="107.3,365 0,257.2 0,106.3 107.3,0 258.2,0 365,106.3 365,257.2 258.2,365 "/>
<g>
	<path fill="#2F3331" d="M295,152.3v-8.1c0-4.4-2.7-8.1-6.8-9.5l-84.5-30.5c-1-0.3-2.4-0.7-3.4-0.7c-1,0-2.4,0.3-3.4,0.7l-81.1,29.2
		c-2,0-4.4-0.3-6.8-0.3c-9.5,0-18.7,1.4-25.8,4.1c-14.6,5.4-16.6,14.6-16.6,19.3v12.2c-7.8,5.4-9.5,11.9-9.5,15.9
		c0,3.7,1.4,10.5,9.5,16.3c0.3,2,1,3.7,2,5.4v8.8c0,14.6,16.3,23.4,42.4,23.4c1.7,0,3.4,0,5.1,0c3.4,17,27.5,23.1,49.5,23.1
		c21.4,0,45.1-5.8,49.2-22.1l75.7-26.8c4.1-1.4,6.8-5.1,6.8-9.5v-14.6c7.5-4.1,11.5-10.2,11.5-17.6
		C308.5,163.2,303.8,156.7,295,152.3z M77.1,155c0-0.3,0-0.3,0.3-0.7l0,0c0-0.3,0.3-0.7,0.3-1l0,0c0-0.3,0.3-0.3,0.3-0.7l0,0
		l0.3-0.3l0.3-0.3c0-0.3,0.3-0.3,0.3-0.7l0.3-0.3l0.3-0.3l0,0c0.3,0,0.3-0.3,0.7-0.3c0.3-0.3,0.7-0.7,1.4-0.7c0.3,0,0.3-0.3,0.7-0.3
		c0.3-0.3,0.7-0.3,1-0.7s0.7-0.3,1-0.7l0,0l0,0l0,0c0.7-0.3,1.4-0.7,2.4-1l0,0c0.3,0,0.7-0.3,0.7-0.3l0,0c0.7-0.3,1-0.3,1.7-0.7l0,0
		c0.3,0,0.7-0.3,1-0.3l0,0c0.7,0,1-0.3,1.7-0.3l0,0c0.3,0,0.7,0,1-0.3l0,0c0.3,0,0.3,0,0.7,0s0.7,0,1.4-0.3c0.3,0,0.7,0,1-0.3l0,0
		c0.3,0,0.3,0,0.7,0c0.7,0,1,0,1.7-0.3c0.3,0,0.7,0,1,0c1,0,2-0.3,3.1-0.3c0,0,0,0,0.3,0l0,0c1,0,2,0,3.1,0c0.3,0,0.7,0,1,0
		c0.7,0,1.4,0,2,0c1,0,1.7,0,2.7,0c0.3,0,0.7,0,1.4,0c1.4,0,2.4,0,3.7,0.3L200,114l84.5,30.5l-8.8,3.1l-23.4,8.5l-9.5,3.4l-1,0.3
		l-4.4,1.7l-9.5,3.4l-0.3,0.3l-11.5,4.1l0,0L203,174c0.3,0.7,0.3,1.7,0.3,2.4c0,0.7,0,1.4-0.3,2c0,0.3,0,0.3-0.3,0.7
		c0,0.3-0.3,0.7-0.3,1.4c0,0.3-0.3,0.3-0.3,0.7c-0.3,0.3-0.3,0.7-0.7,1c0,0.3-0.3,0.3-0.7,0.7c-0.3,0.3-0.7,0.7-0.7,1
		c-0.3,0.3-0.3,0.3-0.7,0.7c-0.3,0.3-0.7,0.7-1,0.7c-0.3,0.3-0.3,0.3-0.7,0.7c-0.3,0.3-0.7,0.7-1.4,0.7c-0.3,0-0.7,0.3-0.7,0.3
		c-0.3,0.3-1,0.7-1.4,0.7c-0.3,0-0.7,0.3-0.7,0.3c-0.7,0.3-1.4,0.7-2,0.7c-0.3,0-0.3,0-0.7,0.3c-1,0.3-1.7,0.7-2.7,1
		c-0.3,0-0.7,0.3-1,0.3c-0.7,0.3-1.4,0.3-2,0.7c-0.3,0-1,0.3-1.4,0.3c-0.7,0-1,0.3-1.7,0.3c-0.7,0-1,0.3-1.7,0.3s-1,0.3-1.7,0.3
		c-0.7,0-1,0.3-1.7,0.3c-0.3,0-1,0-1.4,0.3c-0.7,0-1.4,0-2,0.3c-0.3,0-1,0-1.4,0c-0.7,0-1.4,0-2,0c-0.3,0-0.7,0-1,0
		c-0.7,0-1.7,0-2.4,0h-0.3c-9.8,0.3-20-1-27.8-3.4l0,0c-0.7-0.3-1.7-0.7-2.4-0.7c0,0-0.3,0-0.3-0.3c-0.7-0.3-1.4-0.3-1.7-0.7
		c-0.3,0-0.3-0.3-0.7-0.3c-0.3-0.3-1-0.3-1.4-0.7c-0.3,0-0.3-0.3-0.7-0.3c-0.3-0.3-0.7-0.3-1.4-0.7c-0.3,0-0.3-0.3-0.7-0.3
		c-0.3-0.3-0.7-0.7-1-1l-0.3-0.3c-0.3-0.3-1-1-1.4-1.4c-0.3-0.3-0.3-0.3-0.7-0.7c-1-1.4-1.7-2.4-1.7-3.7c0-0.3,0-1-0.3-1.4v-0.3
		c0-0.7,0-1.4,0.3-2l0,0c0-0.7,0.3-1,0.7-1.7c0-0.3,0.3-0.7,0.7-1c1-1.7,2.4-3.1,4.4-4.1c-1.4,0.3-3.1,0.7-4.4,1h-0.3
		c-1.7,0.3-3.1,0.7-4.7,0.7l0,0c-1.7,0.3-3.4,0.3-5.1,0.3h-0.3c-1.7,0-3.4,0-5.1,0l0,0c-1,0-1.7,0-2.7,0c-0.3,0-0.7,0-0.7,0
		c-0.7,0-1.4,0-2,0c-0.3,0-0.3,0-0.7,0c-1,0-1.7,0-2.7-0.3c-0.3,0-0.3,0-0.7,0c-0.7,0-1.4,0-2-0.3c-0.3,0-0.7,0-0.7,0
		c-0.3,0-0.3,0-0.7,0s-1,0-1.4-0.3h-0.3c-0.7,0-1.7-0.3-2.4-0.3c-0.3,0-0.3,0-0.7,0c-0.7,0-1-0.3-1.7-0.3c-0.3,0-0.3,0-0.7-0.3
		c-0.7-0.3-1.4-0.3-2-0.7l0,0c-0.7-0.3-1.4-0.3-2-0.7c-0.3,0-0.3,0-0.7-0.3s-1-0.3-1.4-0.7c0,0-0.3,0-0.3-0.3c-0.7-0.3-1-0.7-1.7-1
		c0,0,0,0-0.3-0.3c-0.3,0-0.3-0.3-0.7-0.3s-0.3-0.3-0.7-0.3l-0.3-0.3c-0.3-0.3-0.7-0.7-1-1c0,0,0,0-0.3-0.3
		c-0.3-0.3-0.7-0.7-0.7-1.4v-0.3c0-0.3-0.3-0.7-0.3-1v-0.3c0-0.3,0-1,0-1.4C76.8,156.4,76.8,155.7,77.1,155z M298.4,172.7
		c0,0.3,0,0.3-0.3,0.7c0,0.3-0.3,0.7-0.3,1s-0.3,0.3-0.3,0.7c-0.3,0.3-0.3,0.7-0.7,1l0,0c0,0.3-0.3,0.3-0.3,0.7
		c-0.3,0.3-0.3,0.7-0.7,0.7c-0.3,0.3-0.3,0.3-0.7,0.7c-0.3,0.3-0.3,0.3-0.7,0.7l0,0c-0.3,0.3-0.7,0.3-1,0.7c0,0-0.3,0-0.3,0.3
		c-0.3,0-0.3,0.3-0.7,0.3s-0.7,0.3-1,0.3c-0.3,0.3-0.7,0.3-1.4,0.7c-0.3,0-0.7,0.3-1,0.3c-0.3,0-1,0.3-1.4,0.3s-0.7,0.3-1.4,0.3
		c-0.3,0-1,0.3-1.4,0.3c-0.3,0-1,0.3-1.4,0.3s-1,0.3-1.4,0.3s-0.7,0.3-1.4,0.3l0,0c-0.3,0-1,0-1.4,0.3H279c-0.3,0-1,0-1.4,0.3
		c-0.7,0-1,0-1.7,0.3c-0.3,0-1,0-1.4,0.3c-0.7,0-1,0-1.7,0.3c-0.3,0-1,0-1.4,0h-0.3l0,0c-0.3,0-1,0-1.4,0s-1,0-1.4,0
		c-0.7,0-1.4,0-2,0c-0.3,0-0.7,0-1.4,0l0,0c-1,0-2,0-3.1,0c-0.7,1.7-1.7,3.1-3.4,4.4c-2.7,2.4-7.1,4.1-11.9,5.1
		c-0.3,2.4-1,4.4-2,5.8c-1.4,2.7-3.1,4.4-5.4,4.4c-1,0-2-0.3-3.1-1.4c-1.4-1-2.4-2.7-3.1-5.1c0-0.3-0.3-0.7-0.3-0.7
		c-0.3,0.3-0.7,1-1,1.4c-2.7,3.4-8.1,5.8-14.9,7.1c-1.7,3.4-6.1,5.8-11.9,7.8c-0.7,0.3-1.4,0.3-2,0.7c0,2-1,3.4-2.4,5.1l0,0
		c-4.4,4.7-14.2,7.5-25.1,8.1c-1,2.7-2.7,4.7-4.1,6.4l0,0c-1.7,1.4-3.4,2.4-5.8,2.4c-2,0-3.7-0.7-5.4-2c-2-1.7-3.4-4.1-4.7-7.1l0,0
		c-6.8-1-12.6-3.1-16.3-5.8c-3.1-0.3-5.8-1-8.5-1.7l0,0c-2.7-0.7-5.1-1.4-7.1-2.4c-3.4-1.7-5.8-3.4-7.1-5.8l0,0c0-0.3-0.3-0.7-0.3-1
		c-11.5-0.7-22.1-3.4-26.5-8.5l0,0c-1-1-1.7-2.4-2-3.7c-2.4-0.3-4.7-1-7.1-1.7l0,0c-0.7,0-1-0.3-1.7-0.7l0,0c-0.7-0.3-1.4-0.3-2-0.7
		l0,0c-3.1-1-5.4-2.4-7.1-4.1c-0.7-0.3-1-1-1.4-1.7l0,0c-1-1.4-1.4-2.7-1.4-4.4c0-0.7,0-1,0.3-1.7c0-0.3,0-0.3,0.3-0.7
		c0-0.3,0.3-0.7,0.3-1l0,0c0.3,1,1,2,2,3.1c0.3,0.7,0.7,1,1.4,1.7c0.3,0.3,0.7,0.7,1,1c1.7,1.7,4.1,3.1,6.4,4.4l0,0
		c0.3,0,0.3,0.3,0.7,0.3l0,0c0.3,0.3,1,0.3,1.4,0.7l0,0c7.1,3.1,16.6,4.7,27.8,4.7c1.7,0,3.4,0,5.1,0c0.3,2.7,1.7,4.7,3.1,7.1l0,0
		c1.4,2,3.4,4.1,5.8,5.8l0,0c1,0.7,2,1.4,3.1,2c0,0,0.3,0,0.3,0.3c9.8,5.4,24.1,7.8,37.3,7.8c15.6,0,32.2-3.1,41.7-10.9
		c0.7-0.7,1.4-1.4,2.4-2c2.4-2.7,4.4-5.8,5.4-9.2l53.6-19.3l1-0.3l9.5-3.4l4.4-1.7l1-0.3l5.8-2c1-0.3,2-1,2.7-1.7
		c1.7-1.4,3.1-3.4,3.7-5.8l0.3,0.3c0.3,0.3,0.3,0.3,0.7,0.7c0.3,0.3,0.3,0.7,0.7,0.7c0,0.3,0.3,0.3,0.3,0.7c0.3,0.3,0.3,0.7,0.7,1
		c0,0.3,0.3,0.3,0.3,0.7c0,0.3,0.3,0.7,0.3,1s0,0.3,0.3,0.7c0,0.7,0.3,1,0.3,1.7C298.7,171.6,298.4,172.3,298.4,172.7z"/>
</g>
</svg>
