<?xml version="1.0" encoding="utf-8"?>
<!-- Generator: Adobe Illustrator 18.0.0, SVG Export Plug-In . SVG Version: 6.00 Build 0)  -->
<!DOCTYPE svg PUBLIC "-//W3C//DTD SVG 1.1//EN" "http://www.w3.org/Graphics/SVG/1.1/DTD/svg11.dtd">
<svg version="1.1" id="Layer_1" xmlns="http://www.w3.org/2000/svg" xmlns:xlink="http://www.w3.org/1999/xlink" x="0px" y="0px"
	 viewBox="0 0 365 365" enable-background="new 0 0 365 365" xml:space="preserve">
<polygon fill="#BDD2C7" points="107.3,365 0,257.2 0,106.3 107.3,0 258.2,0 365,106.3 365,257.2 258.2,365 "/>
<g>
	<g>
		<g>
			<circle fill="#2F3331" cx="168.8" cy="164.6" r="3.7"/>
			<circle fill="#2F3331" cx="221.4" cy="164.6" r="3.7"/>
			<path fill="#2F3331" d="M142.5,159.6l26.3-26.3l26.3,26.3l26.3-26.3l15.4,15.4c-4.3-26.3-23.1-47.3-47.6-55
				c9.6-4,16.2-13.3,16.2-24.2c-0.3-14.4-12.2-26-26.6-26c-14.6,0-26.3,11.7-26.3,26.3c0,8.8,4.3,16.5,10.9,21.3
				c-32.4,2.1-58.7,26.8-63.5,58.5l15.9-15.9L142.5,159.6z"/>
			<circle fill="#2F3331" cx="116.2" cy="164.6" r="3.7"/>
			<path fill="#2F3331" d="M239.2,178.7h-10.6l9-9v-10.1c0-0.3,0-0.3,0-0.3l-16.2-16.2l-21.5,21.5l14.1,14.1h-9.6l-9.6-9.6l-9.6,9.6
				h-9.6l14.1-14.1l-21.3-21.5L147,164.6l0,0l0,0l14.1,14.1h-9.6l-9.6-9.6l-9.6,9.6h-9.6l14.1-14.1l0,0l0,0l-21.3-21.5l-16.7,16.7
				v9.6l9.6,9.6h-9.6c-5,0-9,4-9,9v39.6c0,5,4,9,9,9h139.8c5,0,9-4,9-9v-39.9C248,182.7,244,178.7,239.2,178.7z M104.5,164.6
				l11.7-11.7l11.7,11.7l-11.7,11.7L104.5,164.6z M156.8,164.6l11.7-11.7l11.7,11.7l-11.7,11.7L156.8,164.6z M209.4,164.6l11.7-11.7
				l11.7,11.7l-11.7,11.7L209.4,164.6z"/>
		</g>
	</g>
	<path fill="#BDD2C7" d="M221.9,166.8c9.8,2.1,5.3,19.1,8.2,17.5c19.1-12.2,43.6-23.4,58.2-5.6C317.9,214.3,232,268,232,268
		l-42.8-51.8"/>
	<polygon fill="#BDD2C7" stroke="#BDD2C7" stroke-miterlimit="10" points="190.7,215.3 184.4,221.2 182.5,252.5 229,252.5 	"/>
	<path fill="#2F3331" stroke="#BDD2C7" stroke-miterlimit="10" d="M233.4,268l-42.8-51.8c0,0,9.3-54.7,32.7-49.4
		c9.8,2.1,5.3,19.1,8.2,17.5c19.1-12.2,43.6-23.4,58.2-5.6C319.2,214.3,233.4,268,233.4,268z"/>
	<polygon fill="#BDD2C7" stroke="#BDD2C7" stroke-miterlimit="10" points="185,214.9 164.5,231.6 175.9,245.3 195.8,228 	"/>
	<polygon fill="#2F3331" stroke="#BDD2C7" stroke-miterlimit="10" points="179.7,234 198,235.9 198,236.4 198,237.2 197.7,240.7 
		197.7,240.7 196.4,254.2 210,255.5 211.3,255.5 214.8,255.8 214.8,256.3 214.8,257.4 213.2,274.4 229.4,275.7 232.8,272.8 
		185,214.9 181.3,217.8 	"/>
	<polygon fill="#2F3331" stroke="#BDD2C7" stroke-miterlimit="10" points="207.8,278.7 207.8,278.1 207.8,278.1 207.8,276.8 
		209.4,260.3 191.1,258.5 191.1,258.5 191.4,257.1 193,240.1 174.9,238.5 174.9,238.5 174.6,238.3 175.9,222.1 164.5,231.6 
		212.6,289.6 224.1,280.3 	"/>
</g>
</svg>
