<?xml version="1.0" encoding="utf-8"?>
<!-- Generator: Adobe Illustrator 18.0.0, SVG Export Plug-In . SVG Version: 6.00 Build 0)  -->
<!DOCTYPE svg PUBLIC "-//W3C//DTD SVG 1.1//EN" "http://www.w3.org/Graphics/SVG/1.1/DTD/svg11.dtd">
<svg version="1.1" id="Layer_1" xmlns="http://www.w3.org/2000/svg" xmlns:xlink="http://www.w3.org/1999/xlink" x="0px" y="0px"
	 viewBox="11.8 1 78.1 93.4" enable-background="new 11.8 1 78.1 93.4" xml:space="preserve">
<g>
	<g>
		<circle fill="#2F3331" cx="41.3" cy="46.6" r="1.4"/>
		<circle fill="#2F3331" cx="61.1" cy="46.6" r="1.4"/>
		<path fill="#2F3331" d="M31.4,44.7l9.9-9.9l9.9,9.9l9.9-9.9l5.8,5.8c-1.6-9.9-8.7-17.8-17.9-20.7c3.6-1.5,6.1-5,6.1-9.1
			C55,5.4,50.5,1,45.1,1c-5.5,0-9.9,4.4-9.9,9.9c0,3.3,1.6,6.2,4.1,8c-12.2,0.8-22.1,10.1-23.9,22l6-6L31.4,44.7z"/>
		<circle fill="#2F3331" cx="21.5" cy="46.6" r="1.4"/>
		<path fill="#2F3331" d="M67.8,51.9h-4l3.4-3.4v-3.8c0-0.1,0-0.1,0-0.1l-6.1-6.1L53,46.6l5.3,5.3h-3.6l-3.6-3.6l-3.6,3.6h-3.6
			l5.3-5.3l-8-8.1l-8.1,8.1l0,0l0,0l5.3,5.3h-3.6l-3.6-3.6l-3.6,3.6h-3.6l5.3-5.3l0,0l0,0l-8-8.1l-6.3,6.3v3.6l3.6,3.6h-3.6
			c-1.9,0-3.4,1.5-3.4,3.4v14.9c0,1.9,1.5,3.4,3.4,3.4h52.6c1.9,0,3.4-1.5,3.4-3.4v-15C71.1,53.4,69.6,51.9,67.8,51.9z M17.1,46.6
			l4.4-4.4l4.4,4.4L21.5,51L17.1,46.6z M36.8,46.6l4.4-4.4l4.4,4.4L41.2,51L36.8,46.6z M56.6,46.6l4.4-4.4l4.4,4.4L61,51L56.6,46.6z
			"/>
	</g>
</g>
<polygon fill="#BDD2C7" points="65.7,86.2 47.6,64.3 37.3,72.6 55.4,94.4 58,92.3 58.1,92.5 "/>
<path fill="#BDD2C7" d="M65.1,85.5L49,66c0,0,3.5-20.6,12.3-18.6c3.7,0.8,2,7.2,3.1,6.6c7.2-4.6,16.4-8.8,21.9-2.1
	C97.4,65.3,65.1,85.5,65.1,85.5z"/>
<path fill="#BDD2C7" d="M66.3,83.4L50.2,63.9c0,0,3.5-20.6,12.3-18.6c3.7,0.8,2,7.2,3.1,6.6c7.2-4.6,16.4-8.8,21.9-2.1
	C98.6,63.3,66.3,83.4,66.3,83.4z"/>
<path fill="#2F3331" d="M65.6,85.5L49.5,66c0,0,3.5-20.6,12.3-18.6c3.7,0.8,2,7.2,3.1,6.6c7.2-4.6,16.4-8.8,21.9-2.1
	C97.9,65.3,65.6,85.5,65.6,85.5z"/>
<polygon fill="#2F3331" points="45.4,72.7 52.3,73.4 52.3,73.6 52.3,73.9 52.2,75.2 52.2,75.2 51.7,80.3 56.8,80.8 57.3,80.8 
	58.6,80.9 58.6,81.1 58.6,81.5 58,87.9 64.1,88.4 65.4,87.3 47.4,65.5 46,66.6 "/>
<polygon fill="#2F3331" points="56,89.5 56,89.3 56,89.3 56,88.8 56.6,82.6 49.7,81.9 49.7,81.9 49.8,81.4 50.4,75 43.6,74.4 
	43.6,74.4 43.5,74.3 44,68.2 39.7,71.8 57.8,93.6 62.1,90.1 "/>
</svg>
