<?xml version="1.0" encoding="utf-8"?>
<!-- Generator: Adobe Illustrator 18.0.0, SVG Export Plug-In . SVG Version: 6.00 Build 0)  -->
<!DOCTYPE svg PUBLIC "-//W3C//DTD SVG 1.1//EN" "http://www.w3.org/Graphics/SVG/1.1/DTD/svg11.dtd">
<svg version="1.1" id="Layer_1" xmlns="http://www.w3.org/2000/svg" xmlns:xlink="http://www.w3.org/1999/xlink" x="0px" y="0px"
	 viewBox="21.6 -1.9 59.4 72.7" enable-background="new 21.6 -1.9 59.4 72.7" xml:space="preserve">
<g>
	<g>
		<circle fill="#2F3331" cx="51.1" cy="43.8" r="1.4"/>
		<circle fill="#2F3331" cx="70.9" cy="43.8" r="1.4"/>
		<path fill="#2F3331" d="M41.1,41.9l9.9-9.9l9.9,9.9l9.9-9.9l5.8,5.8C75,28,67.9,20.1,58.6,17.2c3.6-1.5,6.1-5,6.1-9.1
			c0-5.5-4.4-9.9-9.9-9.9c-5.5,0-9.9,4.4-9.9,9.9c0,3.3,1.6,6.2,4.1,8C37,16.8,27.1,26.1,25.3,38l6-6L41.1,41.9z"/>
		<circle fill="#2F3331" cx="31.3" cy="43.8" r="1.4"/>
		<path fill="#2F3331" d="M77.6,49.1h-4l3.4-3.4v-3.8c0-0.1,0-0.1,0-0.1l-6.1-6.1l-8.1,8.1l5.3,5.3h-3.6l-3.6-3.6l-3.6,3.6h-3.6
			l5.3-5.3l-8-8.1L43,43.8l0,0l0,0l5.3,5.3h-3.6l-3.6-3.6l-3.6,3.6H34l5.3-5.3l0,0l0,0l-8-8.1L25,42v3.6l3.6,3.6H25
			c-1.9,0-3.4,1.5-3.4,3.4v14.9c0,1.9,1.5,3.4,3.4,3.4h52.6c1.9,0,3.4-1.5,3.4-3.4v-15C80.9,50.6,79.4,49.1,77.6,49.1z M26.9,43.8
			l4.4-4.4l4.4,4.4l-4.4,4.4L26.9,43.8z M46.6,43.8l4.4-4.4l4.4,4.4L51,48.1L46.6,43.8z M66.4,43.8l4.4-4.4l4.4,4.4l-4.4,4.4
			L66.4,43.8z"/>
	</g>
</g>
</svg>
