<?xml version="1.0" encoding="utf-8"?>
<!-- Generator: Adobe Illustrator 18.0.0, SVG Export Plug-In . SVG Version: 6.00 Build 0)  -->
<!DOCTYPE svg PUBLIC "-//W3C//DTD SVG 1.1//EN" "http://www.w3.org/Graphics/SVG/1.1/DTD/svg11.dtd">
<svg version="1.1" xmlns="http://www.w3.org/2000/svg" xmlns:xlink="http://www.w3.org/1999/xlink" x="0px" y="0px"
	 viewBox="0 0 345 345" enable-background="new 0 0 345 345" xml:space="preserve">
<g id="Layer_3">
	<polygon fill="#2ECC71" points="101.5,345 0,243.3 0,100.5 101.5,0 244.3,0 345,100.5 345,243.3 244.3,345 	"/>
	<polygon fill="#D35400" points="163,74 184,74 173.5,124.4 	"/>
	<path fill="#BF471D" d="M233.9,245.9H111.1c-6.6,0-12-5.4-12-12V111.1c0-6.6,5.4-12,12-12h122.9c6.6,0,12,5.4,12,12v122.9
		C245.9,240.5,240.5,245.9,233.9,245.9z"/>
	<g>
		<path fill="#27AE60" d="M208.7,78L208.7,78C208.8,78,208.8,78,208.7,78L208.7,78z"/>
		<path fill="#27AE60" d="M208.8,78.2C208.8,78.3,208.8,78.3,208.8,78.2c0.1,0.1,0.1,0.1,0.2,0.1L208.8,78.2z"/>
		<path fill="#27AE60" d="M208.7,78.3l0.1-0.3c-27.7-6.8-31.8,19.5-32,20.8l0-0.1c0,0-0.4-0.1-0.4-0.1l-0.1,0.4l0.3,0
			C203.9,105.8,208.4,80.3,208.7,78.3C208.7,78.3,208.7,78.3,208.7,78.3z"/>
	</g>
	<path fill="#A35824" d="M142,246.3c0,0,17.9-11.9,28.3-5.8c10.4,6.1-12.3,17.8-12.3,17.8L142,246.3z"/>
	<polyline fill="#A35824" points="145.3,278 184,265 164.7,254.3 145.3,278 	"/>
</g>
<g id="Layer_2">
	<path fill="#7F4924" d="M279.9,192.1c-0.5-0.5-0.9-0.9-1.4-1.3c-5.7-0.4-11.7-0.6-16.4,2.4c-2.7,1.7-4.8,4.3-6.8,6.8
		c-1.2,1.5-2.4,3-3.5,4.5c-1.9,2.4-3.8,4.8-5,7.6c-1.3,3.2-1.6,6.6-1.3,10.1c-1.6-0.2-3.2-0.1-4.7,0.2c-2.9,0.5-5.6,1.8-8.2,3
		c-5.2,2.4-10.5,5-13.8,9.6c-1.3,1.8-2.1,3.9-3.4,5.7c-1.1,1.5-2.5,2.8-3.7,4.3c-0.7,1-1.4,2-1.9,3.1c-5.4,0.2-10.7,3.5-13.9,8
		c-0.3,0.5-0.7,1-0.9,1.5c-0.3,0.8-0.4,1.8-0.2,2.7c4.5,0.7,21-2.5,21.3-2.9c12.3-2.6,24.3-6.2,35.9-10.9c1.8-0.7,3.6-1.5,5-2.8
		c1.4-1.2,9.9-10.9,11.4-14.4c1.4-3.5,2.3-7.2,3.6-10.7c1.8-4.6,4.5-8.8,6.3-13.3C279.9,201.1,280.9,196.4,279.9,192.1z"/>
	<path fill="#A35824" d="M155.9,198.1c-2.3-2.8-5.4-4.9-8.4-7c-2.7-1.8-5.9-3.8-9.1-3c-1.3,0.3-2.5,1.1-3.6,1.8
		c-10.1,6.6-19.7,14-28.6,22.1c-2.1,1.9-7.6,7.6-8.7,8.2c-7.4,4.2-14.2,9.6-19.2,16.4c-2.6,3.6-4.7,7.6-5.2,12
		c-0.5,4.4,0.9,9.1,4.3,11.9c3.8,3.2,9.3,3.3,14.2,2.7c1.6-0.2,3.3-0.5,4.8-1c2.5-0.9,4.6-2.4,6.8-3.9c4-2.8,8-5.5,12-8.3
		c2.9-2,6-4.3,6.8-7.7c0.1-0.4,7.8-3.2,11.2-5.4c8.7-5.6,16.3-12.8,22.4-21.2c1.6-2.3,3.2-4.7,3.6-7.5
		C159.7,204.6,158.2,200.9,155.9,198.1z"/>
	<g>
		<path fill="#A35824" d="M168.9,266.3L168.9,266.3c0.9-1.3,1.4-2.8,1.3-4.4c-0.2-2.5-1.8-4.6-3.8-6.2c-1.6-1.4-3.5-2.4-5.5-3.3
			c0.5-0.9,0.9-1.9,1.2-2.9c0.2-0.8,0.2-1.7-0.1-2.4c-0.5-1-1.6-1.6-2.6-2c-16.6-7-35.5-2-53.6-2.4c-11.5-0.3-23-2.8-34.6-1.9
			c-8.3,0.7-16.4,3.2-23.6,7.3l-30,12.9l32.3,32.4C117,299.5,168.9,266.3,168.9,266.3z"/>
		<polygon fill="#A35824" points="71.2,314.6 71.3,314.6 71.4,314.6 		"/>
	</g>
	<path fill="#A35824" d="M237.9,167.7c-0.5,0.1-0.9,0.2-1.4,0.3c-1.6,0.3-3.1,0.7-4.5,1.4c-1.5,0.8-2.7,1.9-3.9,3.1
		c-5.2,5-7.6,10.7-8.6,17.8c-0.5,3.2,0,6.3,1,9.3c-6.2,4.7-10.8,11.4-15.2,17.9c-0.7,1-11.1,13.7-15.1,14.8
		c-8.2,2.3-16.5,4.1-24.9,5.4c-1.7,0.3-3.4,0.6-4.7,1.7c-1.5,1.3-1.9,3.4-2.3,5.4c-0.9,5.2-1.7,10.9,1.2,15.3
		c2.6,4,7.5,5.7,12.2,6.1c7.5,0.6,14.9-1.7,22-3.9c2.8-0.9,5.6-1.8,8.2-3.1c4.5-2.3,8.3-5.8,11.6-9.5c1.9-2.1,14.3-17.7,17.4-20.6
		c2.8-2.6,10.7-13.3,11.3-16.2c2.8-14.6,3.1-29.7,0.9-44.5C241.2,168,239.5,167.8,237.9,167.7z"/>
</g>
</svg>
