<?xml version="1.0" encoding="utf-8"?>
<!-- Generator: Adobe Illustrator 18.0.0, SVG Export Plug-In . SVG Version: 6.00 Build 0)  -->
<!DOCTYPE svg PUBLIC "-//W3C//DTD SVG 1.1//EN" "http://www.w3.org/Graphics/SVG/1.1/DTD/svg11.dtd">
<svg version="1.1" id="Layer_1" xmlns="http://www.w3.org/2000/svg" xmlns:xlink="http://www.w3.org/1999/xlink" x="0px" y="0px"
	 viewBox="0 0 365 365" enable-background="new 0 0 365 365" xml:space="preserve">
<polygon fill="#BDD2C7" points="107.3,365 0,257.2 0,106.3 107.3,0 258.2,0 365,106.3 365,257.2 258.2,365 "/>
<g>
	<g>
		<circle fill="#2F3331" cx="183" cy="171.4" r="3.4"/>
		<circle fill="#2F3331" cx="231" cy="171.4" r="3.4"/>
		<path fill="#2F3331" d="M159,166.8l24-24l24,24l24-24l14,14c-3.9-24-21.1-43.1-43.4-50.1c8.7-3.6,14.8-12.1,14.8-22
			C216.2,71.6,205.3,61,192.2,61c-13.3,0-24,10.7-24,24c0,8,3.9,15,9.9,19.4c-29.5,1.9-53.5,24.5-57.9,53.3l14.5-14.5L159,166.8z"/>
		<circle fill="#2F3331" cx="135" cy="171.4" r="3.4"/>
		<path fill="#2F3331" d="M247.2,184.2h-9.7l8.2-8.2v-9.2c0-0.2,0-0.2,0-0.2L231,151.8l-19.6,19.6l12.8,12.8h-8.7l-8.7-8.7l-8.7,8.7
			h-8.7l12.8-12.8l-19.4-19.6l-19.6,19.6l0,0l0,0l12.8,12.8h-8.7l-8.7-8.7l-8.7,8.7h-8.7l12.8-12.8l0,0l0,0l-19.4-19.6L119.3,167
			v8.7l8.7,8.7h-8.7c-4.6,0-8.2,3.6-8.2,8.2v36.1c0,4.6,3.6,8.2,8.2,8.2h127.4c4.6,0,8.2-3.6,8.2-8.2v-36.3
			C255.2,187.9,251.5,184.2,247.2,184.2z M124.4,171.4l10.7-10.7l10.7,10.7L135,182.1L124.4,171.4z M172.1,171.4l10.7-10.7
			l10.7,10.7l-10.7,10.7L172.1,171.4z M220.1,171.4l10.7-10.7l10.7,10.7l-10.7,10.7L220.1,171.4z"/>
	</g>
</g>
<path fill="#BDD2C7" d="M240,179.3c9,1.9,4.8,17.4,7.5,16c17.4-11.1,39.7-21.3,53-5.1c26.9,32.5-51.3,81.4-51.3,81.4l-39-47.2"/>
<polygon fill="#BDD2C7" stroke="#BDD2C7" stroke-miterlimit="10" points="211.6,223.6 205.8,229 204.1,257.5 246.4,257.5 "/>
<path fill="#2F3331" stroke="#BDD2C7" stroke-miterlimit="10" d="M250.4,271.6l-39-47.2c0,0,8.5-49.9,29.8-45.1
	c9,1.9,4.8,17.4,7.5,16c17.4-11.1,39.7-21.3,53-5.1C328.6,222.7,250.4,271.6,250.4,271.6z"/>
<polygon fill="#BDD2C7" stroke="#BDD2C7" stroke-miterlimit="10" points="206.3,223.2 187.7,238.4 198,250.9 216.2,235.1 "/>
<polygon fill="#2F3331" stroke="#BDD2C7" stroke-miterlimit="10" points="201.5,240.6 218.2,242.3 218.2,242.8 218.2,243.5 
	217.9,246.7 217.9,246.7 216.7,259 229.1,260.2 230.3,260.2 233.4,260.5 233.4,261 233.4,261.9 232,277.4 246.8,278.6 249.9,276 
	206.3,223.2 202.9,225.8 "/>
<polygon fill="#2F3331" stroke="#BDD2C7" stroke-miterlimit="10" points="227.1,281.3 227.1,280.8 227.1,280.8 227.1,279.6 
	228.6,264.6 211.9,262.9 211.9,262.9 212.1,261.7 213.6,246.2 197.1,244.7 197.1,244.7 196.9,244.5 198.1,229.7 187.7,238.4 
	231.5,291.2 241.9,282.8 "/>
<g>
	<path fill="#2F3331" stroke="#BDD2C7" stroke-miterlimit="10" d="M211.9,235.5v-4.7c0-2.6-1.6-4.7-3.9-5.5l-49-17.7
		c-0.6-0.2-1.4-0.4-2-0.4s-1.4,0.2-2,0.4l-47,16.9c-1.2,0-2.6-0.2-3.9-0.2c-5.5,0-10.8,0.8-15,2.4c-8.5,3.1-9.6,8.5-9.6,11.2v7.1
		c-4.5,3.1-5.5,6.9-5.5,9.2c0,2.2,0.8,6.1,5.5,9.4c0.2,1.2,0.6,2.2,1.2,3.1v5.1c0,8.5,9.4,13.6,24.6,13.6c1,0,2,0,3,0
		c2,9.8,15.9,13.4,28.7,13.4c12.4,0,26.2-3.3,28.5-12.8l43.9-15.5c2.4-0.8,3.9-3,3.9-5.5v-8.5c4.3-2.4,6.7-5.9,6.7-10.2
		C219.8,241.8,217,238.1,211.9,235.5z M85.6,237.1c0-0.2,0-0.2,0.2-0.4l0,0c0-0.2,0.2-0.4,0.2-0.6l0,0c0-0.2,0.2-0.2,0.2-0.4l0,0
		l0.2-0.2l0.2-0.2c0-0.2,0.2-0.2,0.2-0.4l0.2-0.2l0.2-0.2l0,0c0.2,0,0.2-0.2,0.4-0.2c0.2-0.2,0.4-0.4,0.8-0.4c0.2,0,0.2-0.2,0.4-0.2
		c0.2-0.2,0.4-0.2,0.6-0.4c0.2-0.2,0.4-0.2,0.6-0.4l0,0l0,0l0,0c0.4-0.2,0.8-0.4,1.4-0.6l0,0c0.2,0,0.4-0.2,0.4-0.2l0,0
		c0.4-0.2,0.6-0.2,1-0.4l0,0c0.2,0,0.4-0.2,0.6-0.2l0,0c0.4,0,0.6-0.2,1-0.2l0,0c0.2,0,0.4,0,0.6-0.2l0,0c0.2,0,0.2,0,0.4,0
		c0.2,0,0.4,0,0.8-0.2c0.2,0,0.4,0,0.6-0.2l0,0c0.2,0,0.2,0,0.4,0c0.4,0,0.6,0,1-0.2c0.2,0,0.4,0,0.6,0c0.6,0,1.2-0.2,1.8-0.2
		c0,0,0,0,0.2,0l0,0c0.6,0,1.2,0,1.8,0c0.2,0,0.4,0,0.6,0c0.4,0,0.8,0,1.2,0c0.6,0,1,0,1.6,0c0.2,0,0.4,0,0.8,0c0.8,0,1.4,0,2.2,0.2
		l48.2-17.3l49,17.7l-5.1,1.8l-13.6,4.9l-5.5,2l-0.6,0.2l-2.6,1l-5.5,2l-0.2,0.2l-6.7,2.4l0,0l-7.5,2.8c0.2,0.4,0.2,1,0.2,1.4
		c0,0.4,0,0.8-0.2,1.2c0,0.2,0,0.2-0.2,0.4c0,0.2-0.2,0.4-0.2,0.8c0,0.2-0.2,0.2-0.2,0.4c-0.2,0.2-0.2,0.4-0.4,0.6
		c0,0.2-0.2,0.2-0.4,0.4s-0.4,0.4-0.4,0.6c-0.2,0.2-0.2,0.2-0.4,0.4c-0.2,0.2-0.4,0.4-0.6,0.4c-0.2,0.2-0.2,0.2-0.4,0.4
		c-0.2,0.2-0.4,0.4-0.8,0.4c-0.2,0-0.4,0.2-0.4,0.2c-0.2,0.2-0.6,0.4-0.8,0.4c-0.2,0-0.4,0.2-0.4,0.2c-0.4,0.2-0.8,0.4-1.2,0.4
		c-0.2,0-0.2,0-0.4,0.2c-0.6,0.2-1,0.4-1.6,0.6c-0.2,0-0.4,0.2-0.6,0.2c-0.4,0.2-0.8,0.2-1.2,0.4c-0.2,0-0.6,0.2-0.8,0.2
		c-0.4,0-0.6,0.2-1,0.2c-0.4,0-0.6,0.2-1,0.2c-0.4,0-0.6,0.2-1,0.2c-0.4,0-0.6,0.2-1,0.2c-0.2,0-0.6,0-0.8,0.2c-0.4,0-0.8,0-1.2,0.2
		c-0.2,0-0.6,0-0.8,0c-0.4,0-0.8,0-1.2,0c-0.2,0-0.4,0-0.6,0c-0.4,0-1,0-1.4,0h-0.2c-5.7,0.2-11.6-0.6-16.1-2l0,0
		c-0.4-0.2-1-0.4-1.4-0.4c0,0-0.2,0-0.2-0.2c-0.4-0.2-0.8-0.2-1-0.4c-0.2,0-0.2-0.2-0.4-0.2c-0.2-0.2-0.6-0.2-0.8-0.4
		c-0.2,0-0.2-0.2-0.4-0.2c-0.2-0.2-0.4-0.2-0.8-0.4c-0.2,0-0.2-0.2-0.4-0.2c-0.2-0.2-0.4-0.4-0.6-0.6l-0.2-0.2
		c-0.2-0.2-0.6-0.6-0.8-0.8c-0.2-0.2-0.2-0.2-0.4-0.4c-0.6-0.8-1-1.4-1-2.2c0-0.2,0-0.6-0.2-0.8v-0.2c0-0.4,0-0.8,0.2-1.2l0,0
		c0-0.4,0.2-0.6,0.4-1c0-0.2,0.2-0.4,0.4-0.6c0.6-1,1.4-1.8,2.6-2.4c-0.8,0.2-1.8,0.4-2.6,0.6h-0.2c-1,0.2-1.8,0.4-2.8,0.4l0,0
		c-1,0.2-2,0.2-3,0.2h-0.2c-1,0-2,0-3,0l0,0c-0.6,0-1,0-1.6,0c-0.2,0-0.4,0-0.4,0c-0.4,0-0.8,0-1.2,0c-0.2,0-0.2,0-0.4,0
		c-0.6,0-1,0-1.6-0.2c-0.2,0-0.2,0-0.4,0c-0.4,0-0.8,0-1.2-0.2c-0.2,0-0.4,0-0.4,0c-0.2,0-0.2,0-0.4,0c-0.2,0-0.6,0-0.8-0.2h-0.2
		c-0.4,0-1-0.2-1.4-0.2c-0.2,0-0.2,0-0.4,0c-0.4,0-0.6-0.2-1-0.2c-0.2,0-0.2,0-0.4-0.2c-0.4-0.2-0.8-0.2-1.2-0.4l0,0
		c-0.4-0.2-0.8-0.2-1.2-0.4c-0.2,0-0.2,0-0.4-0.2c-0.2-0.2-0.6-0.2-0.8-0.4c0,0-0.2,0-0.2-0.2c-0.4-0.2-0.6-0.4-1-0.6
		c0,0,0,0-0.2-0.2c-0.2,0-0.2-0.2-0.4-0.2c-0.2,0-0.2-0.2-0.4-0.2l-0.2-0.2c-0.2-0.2-0.4-0.4-0.6-0.6c0,0,0,0-0.2-0.2
		c-0.2-0.2-0.4-0.4-0.4-0.8V240c0-0.2-0.2-0.4-0.2-0.6v-0.2c0-0.2,0-0.6,0-0.8C85.4,237.9,85.4,237.5,85.6,237.1z M213.9,247.3
		c0,0.2,0,0.2-0.2,0.4c0,0.2-0.2,0.4-0.2,0.6c0,0.2-0.2,0.2-0.2,0.4c-0.2,0.2-0.2,0.4-0.4,0.6l0,0c0,0.2-0.2,0.2-0.2,0.4
		c-0.2,0.2-0.2,0.4-0.4,0.4c-0.2,0.2-0.2,0.2-0.4,0.4c-0.2,0.2-0.2,0.2-0.4,0.4l0,0c-0.2,0.2-0.4,0.2-0.6,0.4c0,0-0.2,0-0.2,0.2
		c-0.2,0-0.2,0.2-0.4,0.2c-0.2,0-0.4,0.2-0.6,0.2c-0.2,0.2-0.4,0.2-0.8,0.4c-0.2,0-0.4,0.2-0.6,0.2s-0.6,0.2-0.8,0.2
		c-0.2,0-0.4,0.2-0.8,0.2c-0.2,0-0.6,0.2-0.8,0.2c-0.2,0-0.6,0.2-0.8,0.2c-0.2,0-0.6,0.2-0.8,0.2c-0.2,0-0.4,0.2-0.8,0.2l0,0
		c-0.2,0-0.6,0-0.8,0.2h-0.2c-0.2,0-0.6,0-0.8,0.2c-0.4,0-0.6,0-1,0.2c-0.2,0-0.6,0-0.8,0.2c-0.4,0-0.6,0-1,0.2c-0.2,0-0.6,0-0.8,0
		h-0.2l0,0c-0.2,0-0.6,0-0.8,0c-0.2,0-0.6,0-0.8,0c-0.4,0-0.8,0-1.2,0c-0.2,0-0.4,0-0.8,0l0,0c-0.6,0-1.2,0-1.8,0
		c-0.4,1-1,1.8-2,2.6c-1.6,1.4-4.1,2.4-6.9,3c-0.2,1.4-0.6,2.6-1.2,3.3c-0.8,1.6-1.8,2.6-3.1,2.6c-0.6,0-1.2-0.2-1.8-0.8
		c-0.8-0.6-1.4-1.6-1.8-3c0-0.2-0.2-0.4-0.2-0.4c-0.2,0.2-0.4,0.6-0.6,0.8c-1.6,2-4.7,3.3-8.7,4.1c-1,2-3.5,3.3-6.9,4.5
		c-0.4,0.2-0.8,0.2-1.2,0.4c0,1.2-0.6,2-1.4,3l0,0c-2.6,2.8-8.3,4.3-14.6,4.7c-0.6,1.6-1.6,2.8-2.4,3.7l0,0c-1,0.8-2,1.4-3.3,1.4
		c-1.2,0-2.2-0.4-3.1-1.2c-1.2-1-2-2.4-2.8-4.1l0,0c-3.9-0.6-7.3-1.8-9.4-3.3c-1.8-0.2-3.3-0.6-4.9-1l0,0c-1.6-0.4-3-0.8-4.1-1.4
		c-2-1-3.3-2-4.1-3.3l0,0c0-0.2-0.2-0.4-0.2-0.6c-6.7-0.4-12.8-2-15.3-4.9l0,0c-0.6-0.6-1-1.4-1.2-2.2c-1.4-0.2-2.8-0.6-4.1-1l0,0
		c-0.4,0-0.6-0.2-1-0.4l0,0c-0.4-0.2-0.8-0.2-1.2-0.4l0,0c-1.8-0.6-3.1-1.4-4.1-2.4c-0.4-0.2-0.6-0.6-0.8-1l0,0
		c-0.6-0.8-0.8-1.6-0.8-2.6c0-0.4,0-0.6,0.2-1c0-0.2,0-0.2,0.2-0.4c0-0.2,0.2-0.4,0.2-0.6l0,0c0.2,0.6,0.6,1.2,1.2,1.8
		c0.2,0.4,0.4,0.6,0.8,1c0.2,0.2,0.4,0.4,0.6,0.6c1,1,2.4,1.8,3.7,2.6l0,0c0.2,0,0.2,0.2,0.4,0.2l0,0c0.2,0.2,0.6,0.2,0.8,0.4l0,0
		c4.1,1.8,9.6,2.8,16.1,2.8c1,0,2,0,3,0c0.2,1.6,1,2.8,1.8,4.1l0,0c0.8,1.2,2,2.4,3.3,3.3l0,0c0.6,0.4,1.2,0.8,1.8,1.2
		c0,0,0.2,0,0.2,0.2c5.7,3.1,14,4.5,21.6,4.5c9.1,0,18.7-1.8,24.2-6.3c0.4-0.4,0.8-0.8,1.4-1.2c1.4-1.6,2.6-3.3,3.1-5.3l31.1-11.2
		l0.6-0.2l5.5-2l2.6-1l0.6-0.2l3.3-1.2c0.6-0.2,1.2-0.6,1.6-1c1-0.8,1.8-2,2.2-3.3l0.2,0.2c0.2,0.2,0.2,0.2,0.4,0.4
		c0.2,0.2,0.2,0.4,0.4,0.4c0,0.2,0.2,0.2,0.2,0.4c0.2,0.2,0.2,0.4,0.4,0.6c0,0.2,0.2,0.2,0.2,0.4c0,0.2,0.2,0.4,0.2,0.6
		c0,0.2,0,0.2,0.2,0.4c0,0.4,0.2,0.6,0.2,1C214.1,246.7,213.9,247.1,213.9,247.3z"/>
</g>
<polygon fill="#BDD2C7" stroke="#BDD2C7" stroke-miterlimit="10" points="110,230.9 156.7,213.4 205.8,231.2 158.6,248.5 
	117.7,248.5 "/>
<path fill="#BDD2C7" stroke="#BDD2C7" stroke-miterlimit="10" d="M213.7,247.7c0,0-5.3,5.7-11.8,6.3c-6.5,0.6-3.9-3.1-3.9-3.1
	l11.5-5L213.7,247.7z"/>
</svg>
