<?xml version="1.0" encoding="utf-8"?>
<!-- Generator: Adobe Illustrator 18.0.0, SVG Export Plug-In . SVG Version: 6.00 Build 0)  -->
<!DOCTYPE svg PUBLIC "-//W3C//DTD SVG 1.1//EN" "http://www.w3.org/Graphics/SVG/1.1/DTD/svg11.dtd">
<svg version="1.1" id="Layer_1" xmlns="http://www.w3.org/2000/svg" xmlns:xlink="http://www.w3.org/1999/xlink" x="0px" y="0px"
	 viewBox="14.3 16.9 74.1 46.6" enable-background="new 14.3 16.9 74.1 46.6" xml:space="preserve">
<path fill="#2F3331" d="M84.3,31.2v-2.4c0-1.3-0.8-2.4-2-2.8l-24.9-9c-0.3-0.1-0.7-0.2-1-0.2c-0.3,0-0.7,0.1-1,0.2l-23.9,8.6
	c-0.6,0-1.3-0.1-2-0.1c-2.8,0-5.5,0.4-7.6,1.2c-4.3,1.6-4.9,4.3-4.9,5.7v3.6c-2.3,1.6-2.8,3.5-2.8,4.7c0,1.1,0.4,3.1,2.8,4.8
	c0.1,0.6,0.3,1.1,0.6,1.6v2.6c0,4.3,4.8,6.9,12.5,6.9c0.5,0,1,0,1.5,0c1,5,8.1,6.8,14.6,6.8c6.3,0,13.3-1.7,14.5-6.5L83,49
	c1.2-0.4,2-1.5,2-2.8v-4.3c2.2-1.2,3.4-3,3.4-5.2C88.3,34.4,86.9,32.5,84.3,31.2z M20.1,32c0-0.1,0-0.1,0.1-0.2l0,0
	c0-0.1,0.1-0.2,0.1-0.3l0,0c0-0.1,0.1-0.1,0.1-0.2l0,0c0,0,0.1-0.1,0.1-0.1c0,0,0.1-0.1,0.1-0.1c0-0.1,0.1-0.1,0.1-0.2
	c0,0,0.1-0.1,0.1-0.1c0,0,0.1-0.1,0.1-0.1l0,0c0.1,0,0.1-0.1,0.2-0.1c0.1-0.1,0.2-0.2,0.4-0.2c0.1,0,0.1-0.1,0.2-0.1
	c0.1-0.1,0.2-0.1,0.3-0.2c0.1-0.1,0.2-0.1,0.3-0.2l0,0c0,0,0,0,0,0c0,0,0,0,0,0c0.2-0.1,0.4-0.2,0.7-0.3l0,0c0.1,0,0.2-0.1,0.2-0.1
	c0,0,0,0,0,0c0.2-0.1,0.3-0.1,0.5-0.2h0c0.1,0,0.2-0.1,0.3-0.1c0,0,0,0,0,0c0.2,0,0.3-0.1,0.5-0.1c0,0,0,0,0,0c0.1,0,0.2,0,0.3-0.1
	h0c0.1,0,0.1,0,0.2,0c0.1,0,0.2,0,0.4-0.1c0.1,0,0.2,0,0.3-0.1h0c0.1,0,0.1,0,0.2,0c0.2,0,0.3,0,0.5-0.1c0.1,0,0.2,0,0.3,0
	c0.3,0,0.6-0.1,0.9-0.1c0,0,0,0,0.1,0c0,0,0,0,0,0c0.3,0,0.6,0,0.9,0c0.1,0,0.2,0,0.3,0c0.2,0,0.4,0,0.6,0c0.3,0,0.5,0,0.8,0
	c0.1,0,0.2,0,0.4,0c0.4,0,0.7,0,1.1,0.1l24.5-8.8l24.9,9l-2.6,0.9l-6.9,2.5l-2.8,1l-0.3,0.1l-1.3,0.5l-2.8,1L64.4,35l-3.4,1.2l0,0
	l-3.8,1.4c0.1,0.2,0.1,0.5,0.1,0.7c0,0.2,0,0.4-0.1,0.6c0,0.1,0,0.1-0.1,0.2c0,0.1-0.1,0.2-0.1,0.4c0,0.1-0.1,0.1-0.1,0.2
	c-0.1,0.1-0.1,0.2-0.2,0.3c0,0.1-0.1,0.1-0.2,0.2c-0.1,0.1-0.2,0.2-0.2,0.3c-0.1,0.1-0.1,0.1-0.2,0.2c-0.1,0.1-0.2,0.2-0.3,0.2
	c-0.1,0.1-0.1,0.1-0.2,0.2c-0.1,0.1-0.2,0.2-0.4,0.2c-0.1,0-0.2,0.1-0.2,0.1c-0.1,0.1-0.3,0.2-0.4,0.2c-0.1,0-0.2,0.1-0.2,0.1
	c-0.2,0.1-0.4,0.2-0.6,0.2c-0.1,0-0.1,0-0.2,0.1c-0.3,0.1-0.5,0.2-0.8,0.3c-0.1,0-0.2,0.1-0.3,0.1c-0.2,0.1-0.4,0.1-0.6,0.2
	c-0.1,0-0.3,0.1-0.4,0.1c-0.2,0-0.3,0.1-0.5,0.1c-0.2,0-0.3,0.1-0.5,0.1c-0.2,0-0.3,0.1-0.5,0.1c-0.2,0-0.3,0.1-0.5,0.1
	c-0.1,0-0.3,0-0.4,0.1c-0.2,0-0.4,0-0.6,0.1c-0.1,0-0.3,0-0.4,0c-0.2,0-0.4,0-0.6,0c-0.1,0-0.2,0-0.3,0c-0.2,0-0.5,0-0.7,0
	c0,0-0.1,0-0.1,0c-2.9,0.1-5.9-0.3-8.2-1c0,0,0,0,0,0c-0.2-0.1-0.5-0.2-0.7-0.2c0,0-0.1,0-0.1-0.1c-0.2-0.1-0.4-0.1-0.5-0.2
	c-0.1,0-0.1-0.1-0.2-0.1c-0.1-0.1-0.3-0.1-0.4-0.2c-0.1,0-0.1-0.1-0.2-0.1c-0.1-0.1-0.2-0.1-0.4-0.2c-0.1,0-0.1-0.1-0.2-0.1
	c-0.1-0.1-0.2-0.2-0.3-0.3c0,0-0.1-0.1-0.1-0.1c-0.1-0.1-0.3-0.3-0.4-0.4c-0.1-0.1-0.1-0.1-0.2-0.2c-0.3-0.4-0.5-0.7-0.5-1.1
	c0-0.1,0-0.3-0.1-0.4c0,0,0-0.1,0-0.1c0-0.2,0-0.4,0.1-0.6c0,0,0,0,0,0c0-0.2,0.1-0.3,0.2-0.5c0-0.1,0.1-0.2,0.2-0.3
	c0.3-0.5,0.7-0.9,1.3-1.2c-0.4,0.1-0.9,0.2-1.3,0.3c0,0-0.1,0-0.1,0c-0.5,0.1-0.9,0.2-1.4,0.2c0,0,0,0,0,0c-0.5,0.1-1,0.1-1.5,0.1
	c0,0-0.1,0-0.1,0c-0.5,0-1,0-1.5,0c0,0,0,0,0,0c-0.3,0-0.5,0-0.8,0c-0.1,0-0.2,0-0.2,0c-0.2,0-0.4,0-0.6,0c-0.1,0-0.1,0-0.2,0
	c-0.3,0-0.5,0-0.8-0.1c-0.1,0-0.1,0-0.2,0c-0.2,0-0.4,0-0.6-0.1c-0.1,0-0.2,0-0.2,0c-0.1,0-0.1,0-0.2,0c-0.1,0-0.3,0-0.4-0.1
	c0,0-0.1,0-0.1,0c-0.2,0-0.5-0.1-0.7-0.1c-0.1,0-0.1,0-0.2,0c-0.2,0-0.3-0.1-0.5-0.1c-0.1,0-0.1,0-0.2-0.1c-0.2-0.1-0.4-0.1-0.6-0.2
	c0,0,0,0,0,0c-0.2-0.1-0.4-0.1-0.6-0.2c-0.1,0-0.1,0-0.2-0.1c-0.1-0.1-0.3-0.1-0.4-0.2c0,0-0.1,0-0.1-0.1c-0.2-0.1-0.3-0.2-0.5-0.3
	c0,0,0,0-0.1-0.1c-0.1,0-0.1-0.1-0.2-0.1c-0.1,0-0.1-0.1-0.2-0.1c0,0-0.1-0.1-0.1-0.1c-0.1-0.1-0.2-0.2-0.3-0.3c0,0,0,0-0.1-0.1
	c-0.1-0.1-0.2-0.2-0.2-0.4c0,0,0-0.1,0-0.1c0-0.1-0.1-0.2-0.1-0.3c0,0,0-0.1,0-0.1c0-0.1,0-0.3,0-0.4C20,32.4,20,32.2,20.1,32z
	 M85.3,37.2c0,0.1,0,0.1-0.1,0.2c0,0.1-0.1,0.2-0.1,0.3c0,0.1-0.1,0.1-0.1,0.2c-0.1,0.1-0.1,0.2-0.2,0.3c0,0,0,0,0,0
	c0,0.1-0.1,0.1-0.1,0.2c-0.1,0.1-0.1,0.2-0.2,0.2c-0.1,0.1-0.1,0.1-0.2,0.2c-0.1,0.1-0.1,0.1-0.2,0.2c0,0,0,0,0,0
	c-0.1,0.1-0.2,0.1-0.3,0.2c0,0-0.1,0-0.1,0.1c-0.1,0-0.1,0.1-0.2,0.1c-0.1,0-0.2,0.1-0.3,0.1c-0.1,0.1-0.2,0.1-0.4,0.2
	c-0.1,0-0.2,0.1-0.3,0.1c-0.1,0-0.3,0.1-0.4,0.1c-0.1,0-0.2,0.1-0.4,0.1c-0.1,0-0.3,0.1-0.4,0.1c-0.1,0-0.3,0.1-0.4,0.1
	c-0.1,0-0.3,0.1-0.4,0.1c-0.1,0-0.2,0.1-0.4,0.1c0,0,0,0,0,0c-0.1,0-0.3,0-0.4,0.1c0,0-0.1,0-0.1,0c-0.1,0-0.3,0-0.4,0.1
	c-0.2,0-0.3,0-0.5,0.1c-0.1,0-0.3,0-0.4,0.1c-0.2,0-0.3,0-0.5,0.1c-0.1,0-0.3,0-0.4,0c0,0-0.1,0-0.1,0l0,0c-0.1,0-0.3,0-0.4,0
	c-0.1,0-0.3,0-0.4,0c-0.2,0-0.4,0-0.6,0c-0.1,0-0.2,0-0.4,0c0,0,0,0,0,0c-0.3,0-0.6,0-0.9,0c-0.2,0.5-0.5,0.9-1,1.3
	c-0.8,0.7-2.1,1.2-3.5,1.5c-0.1,0.7-0.3,1.3-0.6,1.7c-0.4,0.8-0.9,1.3-1.6,1.3c-0.3,0-0.6-0.1-0.9-0.4c-0.4-0.3-0.7-0.8-0.9-1.5
	c0-0.1-0.1-0.2-0.1-0.2c-0.1,0.1-0.2,0.3-0.3,0.4c-0.8,1-2.4,1.7-4.4,2.1c-0.5,1-1.8,1.7-3.5,2.3c-0.2,0.1-0.4,0.1-0.6,0.2
	c0,0.6-0.3,1-0.7,1.5c0,0,0,0,0,0c-1.3,1.4-4.2,2.2-7.4,2.4c-0.3,0.8-0.8,1.4-1.2,1.9l0,0c-0.5,0.4-1,0.7-1.7,0.7
	c-0.6,0-1.1-0.2-1.6-0.6c-0.6-0.5-1-1.2-1.4-2.1c0,0,0,0,0,0c-2-0.3-3.7-0.9-4.8-1.7c-0.9-0.1-1.7-0.3-2.5-0.5l0,0
	c-0.8-0.2-1.5-0.4-2.1-0.7c-1-0.5-1.7-1-2.1-1.7c0,0,0,0,0,0c0-0.1-0.1-0.2-0.1-0.3c-3.4-0.2-6.5-1-7.8-2.5c0,0,0,0,0,0
	c-0.3-0.3-0.5-0.7-0.6-1.1c-0.7-0.1-1.4-0.3-2.1-0.5c0,0,0,0,0,0c-0.2,0-0.3-0.1-0.5-0.2c0,0,0,0,0,0c-0.2-0.1-0.4-0.1-0.6-0.2
	c0,0,0,0,0,0c-0.9-0.3-1.6-0.7-2.1-1.2c-0.2-0.1-0.3-0.3-0.4-0.5c0,0,0,0,0,0c-0.3-0.4-0.4-0.8-0.4-1.3c0-0.2,0-0.3,0.1-0.5
	c0-0.1,0-0.1,0.1-0.2c0-0.1,0.1-0.2,0.1-0.3c0,0,0,0,0,0c0.1,0.3,0.3,0.6,0.6,0.9c0.1,0.2,0.2,0.3,0.4,0.5c0.1,0.1,0.2,0.2,0.3,0.3
	c0.5,0.5,1.2,0.9,1.9,1.3c0,0,0,0,0,0c0.1,0,0.1,0.1,0.2,0.1c0,0,0,0,0,0c0.1,0.1,0.3,0.1,0.4,0.2c0,0,0,0,0,0
	c2.1,0.9,4.9,1.4,8.2,1.4c0.5,0,1,0,1.5,0c0.1,0.8,0.5,1.4,0.9,2.1v0c0.4,0.6,1,1.2,1.7,1.7c0,0,0,0,0,0c0.3,0.2,0.6,0.4,0.9,0.6
	c0,0,0.1,0,0.1,0.1c2.9,1.6,7.1,2.3,11,2.3c4.6,0,9.5-0.9,12.3-3.2c0.2-0.2,0.4-0.4,0.7-0.6c0.7-0.8,1.3-1.7,1.6-2.7l15.8-5.7
	l0.3-0.1l2.8-1l1.3-0.5l0.3-0.1l1.7-0.6c0.3-0.1,0.6-0.3,0.8-0.5c0.5-0.4,0.9-1,1.1-1.7c0,0,0.1,0.1,0.1,0.1
	c0.1,0.1,0.1,0.1,0.2,0.2c0.1,0.1,0.1,0.2,0.2,0.2c0,0.1,0.1,0.1,0.1,0.2c0.1,0.1,0.1,0.2,0.2,0.3c0,0.1,0.1,0.1,0.1,0.2
	c0,0.1,0.1,0.2,0.1,0.3c0,0.1,0,0.1,0.1,0.2c0,0.2,0.1,0.3,0.1,0.5C85.4,36.9,85.3,37.1,85.3,37.2z"/>
</svg>
