<?xml version="1.0" encoding="utf-8"?>
<!-- Generator: Adobe Illustrator 18.0.0, SVG Export Plug-In . SVG Version: 6.00 Build 0)  -->
<!DOCTYPE svg PUBLIC "-//W3C//DTD SVG 1.1//EN" "http://www.w3.org/Graphics/SVG/1.1/DTD/svg11.dtd">
<svg version="1.1" id="Layer_1" xmlns="http://www.w3.org/2000/svg" xmlns:xlink="http://www.w3.org/1999/xlink" x="0px" y="0px"
	 viewBox="0 0 99.5 98.9" enable-background="new 0 0 99.5 98.9" xml:space="preserve">
<polygon fill="#F4FCE8" points="49.7,8.9 60.1,0 66,12.4 79.1,8.5 79.5,22.1 93,23.9 87.8,36.5 99.5,43.7 89.5,53.1 97.3,64.4 
	84.4,68.9 86.9,82.4 73.2,81.3 70.1,94.6 58,88 49.7,98.9 41.4,88 29.4,94.6 26.2,81.3 12.6,82.4 15.1,68.9 2.2,64.4 9.9,53.1 
	0,43.7 11.7,36.5 6.4,23.9 20,22.1 20.3,8.5 33.5,12.4 39.3,0 "/>
</svg>
